<mxfile host="app.diagrams.net" modified="2024-06-09T08:34:33.898Z" agent="Mozilla/5.0 (Macintosh; Intel Mac OS X 10_15_7) AppleWebKit/537.36 (KHTML, like Gecko) Chrome/125.0.0.0 Safari/537.36" version="22.1.16" etag="qUFJ_gBQyEt1alnMcWt9" type="github">
  <diagram name="Page-1" id="v3Rc4-jh1cFgGNwFgjFc">
    <mxGraphModel>
      <root>
        <mxCell id="0" />
        <mxCell id="1" parent="0" />
      </root>
    </mxGraphModel>
  </diagram>
</mxfile>
